<svg height="496pt" viewBox="0 -104 496 496" width="496pt" xmlns="http://www.w3.org/2000/svg"><path d="m32 7.960938h432c13.253906 0 24 10.746093 24 24v224c0 13.253906-10.746094 24-24 24h-432c-13.253906 0-24-10.746094-24-24v-224c0-13.253907 10.746094-24 24-24zm0 0" fill="#e6e7e8"/><path d="m32 7.960938 195.246094 166.320312c11.960937 10.1875 29.546875 10.1875 41.507812 0l195.246094-166.320312zm0 0" fill="#acabb1"/><g fill="#231f20"><path d="m464.847656.046875h-.382812c-.160156 0-.304688-.046875-.464844-.046875h-432c-.160156 0-.304688.046875-.464844.046875h-.382812c-17.308594.460937-31.1093752 14.601563-31.152344 31.914063v224c0 17.671874 14.328125 32 32 32h432c17.671875 0 32-14.328126 32-32v-224c-.042969-17.3125-13.84375-31.453126-31.152344-31.914063zm-290.144531 140 47.359375 40.34375c14.921875 12.804687 36.953125 12.804687 51.875 0l42.589844-36.277344 113.65625 127.847657h-372.367188l116.160156-130.679688c.28125-.390625.527344-.808594.726563-1.25zm88.855469 28.160156c-8.949219 7.6875-22.167969 7.6875-31.117188 0l-178.714844-152.246093h388.546876zm-247.558594 87.753907v-224c.023438-7.804688 5.671875-14.453126 13.367188-15.738282l133.535156 113.761719c-.304688.199219-.597656.417969-.878906.65625l-125.617188 141.320313h-4.40625c-8.835938 0-16-7.164063-16-16zm464 0c0 8.835937-7.164062 16-16 16h-12.40625l-122.882812-138.242188 137.921874-117.496094c7.695313 1.285156 13.34375 7.933594 13.367188 15.738282zm0 0"/><path d="m112 263.960938h72c4.417969 0 8-3.582032 8-8 0-4.417969-3.582031-8-8-8h-72c-4.417969 0-8 3.582031-8 8 0 4.417968 3.582031 8 8 8zm0 0"/><path d="m208 263.960938h8c4.417969 0 8-3.582032 8-8 0-4.417969-3.582031-8-8-8h-8c-4.417969 0-8 3.582031-8 8 0 4.417968 3.582031 8 8 8zm0 0"/></g></svg>