<?xml version="1.0" encoding="iso-8859-1"?>
<!-- Generator: Adobe Illustrator 19.0.0, SVG Export Plug-In . SVG Version: 6.00 Build 0)  -->
<svg version="1.1" id="Capa_1" xmlns="http://www.w3.org/2000/svg" xmlns:xlink="http://www.w3.org/1999/xlink" x="0px" y="0px"
	 viewBox="0 0 512 512" style="enable-background:new 0 0 512 512;" xml:space="preserve">
<rect x="7.604" y="95.262" style="fill:#C0C2D0;" width="496.792" height="321.475"/>
<polyline style="fill:#D0D7DD;" points="327.243,256.018 504.369,416.766 7.631,416.766 184.757,256.018 "/>
<polygon style="fill:#E6EBEF;" points="256,320.712 7.604,95.261 504.396,95.261 "/>
<path d="M255.433,212.164c24.698,0,43.719,12.775,43.719,37.189v47.693c1.419,9.368,6.245,13.91,12.491,13.91
	c15.046,0,17.318-25.834,17.318-41.732c0-50.248-22.428-78.921-71.825-78.921c-56.777,0-73.811,38.609-73.811,81.76
	c0,40.312,15.331,76.65,65.011,76.65c23.846,0,32.93-7.665,38.892-7.665c4.826,0,7.666,5.678,7.666,8.8
	c0,10.504-30.376,17.033-49.965,17.033c-42.299,0-81.76-29.809-81.76-94.534c0-55.927,28.957-100.213,94.252-100.213
	c58.197,0,91.412,34.351,91.412,93.115c0,32.931-11.071,61.888-38.892,61.888c-15.614,0-26.686-9.084-28.957-19.873
	c-9.652,11.071-19.304,17.885-35.202,17.885c-18.168,0-35.769-9.084-35.769-32.08c0-26.402,23.279-33.783,56.493-33.783h10.504
	v-4.826c0-14.479-7.949-21.292-24.983-21.292c-17.601,0-22.71,7.381-27.536,7.381c-4.542,0-7.664-7.665-7.664-11.64
	C216.824,219.546,237.264,212.164,255.433,212.164z M277.86,273.484h-8.516c-21.293,0-34.918,4.258-34.918,19.304
	c0,10.504,6.813,15.33,16.181,15.33c15.33,0,27.254-11.923,27.254-22.995V273.484z"/>
<path d="M504.396,87.657H7.604C3.405,87.657,0,91.062,0,95.261v42.909c0,4.199,3.405,7.604,7.604,7.604l0,0
	c4.199,0,7.604-3.405,7.604-7.604v-25.738l131.678,119.514l10.222-11.261L27.296,102.865h457.435l-129.813,117.82l10.222,11.261
	l131.652-119.489v287.14l-129.835-117.83l-10.22,11.262l127.935,116.105h-77.096c-4.199,0-7.604,3.405-7.604,7.604l0,0
	c0,4.199,3.405,7.604,7.604,7.604h96.82c4.199,0,7.604-3.405,7.604-7.604V95.261C512,91.062,508.595,87.657,504.396,87.657z"/>
<path d="M155.289,293.029l-10.22-11.262L15.208,399.623V173.656c0-4.199-3.405-7.604-7.604-7.604l0,0
	c-4.199,0-7.604,3.405-7.604,7.604v243.082c0,4.199,3.405,7.604,7.604,7.604h364.485c4.199,0,7.604-3.405,7.604-7.604l0,0
	c0-4.199-3.405-7.604-7.604-7.604H27.355L155.289,293.029z"/>
<path d="M266.519,259.29c-33.215,0-56.493,7.381-56.493,33.783c0,22.995,17.601,32.08,35.769,32.08
	c15.898,0,25.55-6.813,35.202-17.885c2.271,10.787,13.342,19.873,28.957,19.873c27.82,0,38.892-28.957,38.892-61.888
	c0-58.765-33.215-93.115-91.412-93.115c-65.295,0-94.252,44.286-94.252,100.213c0,64.726,39.461,94.534,81.76,94.534
	c19.589,0,49.965-6.529,49.965-17.033c0-3.123-2.839-8.8-7.666-8.8c-5.961,0-15.047,7.665-38.892,7.665
	c-49.68,0-65.011-36.338-65.011-76.65c0-43.151,17.034-81.76,73.811-81.76c49.396,0,71.825,28.673,71.825,78.921
	c0,15.897-2.272,41.732-17.318,41.732c-6.245,0-11.071-4.542-12.491-13.91v-47.693c0-24.414-19.021-37.189-43.719-37.189
	c-18.168,0-38.609,7.381-38.609,16.749c0,3.974,3.123,11.64,7.665,11.64c4.826,0,9.936-7.381,27.536-7.381
	c17.034,0,24.983,6.813,24.983,21.292v4.826h-10.504V259.29z M277.873,273.484v11.639c0,11.071-11.923,22.995-27.254,22.995
	c-9.368,0-16.181-4.826-16.181-15.33c0-15.046,13.626-19.304,34.918-19.304h8.516V273.484z"/>
<g>
</g>
<g>
</g>
<g>
</g>
<g>
</g>
<g>
</g>
<g>
</g>
<g>
</g>
<g>
</g>
<g>
</g>
<g>
</g>
<g>
</g>
<g>
</g>
<g>
</g>
<g>
</g>
<g>
</g>
</svg>
