<?xml version="1.0" encoding="iso-8859-1"?>
<!-- Generator: Adobe Illustrator 19.0.0, SVG Export Plug-In . SVG Version: 6.00 Build 0)  -->
<svg version="1.1" id="Capa_1" xmlns="http://www.w3.org/2000/svg" xmlns:xlink="http://www.w3.org/1999/xlink" x="0px" y="0px"
	 viewBox="0 0 512 512" style="enable-background:new 0 0 512 512;" xml:space="preserve">
<g>
	<g transform="translate(1 1)">
		<path style="fill:#FDD834;" d="M84.333,7.533h341.333c9.426,0,17.067,7.641,17.067,17.067v460.8
			c0,9.426-7.641,17.067-17.067,17.067H84.333c-9.426,0-17.067-7.641-17.067-17.067V24.6C67.267,15.174,74.908,7.533,84.333,7.533z"
			/>
		<path style="fill:#FFEB3A;" d="M84.333,7.533h315.733c9.426,0,17.067,7.641,17.067,17.067v460.8
			c0,9.426-7.641,17.067-17.067,17.067H84.333c-9.426,0-17.067-7.641-17.067-17.067V24.6C67.267,15.174,74.908,7.533,84.333,7.533z"
			/>
		<path style="fill:#4CAF50;" d="M340.333,127c0.058,21.221-7.861,41.688-22.187,57.344c-6.903-16.914-20.307-30.349-37.205-37.291
			c-5.206-2.195-10.691-3.66-16.299-4.352c-6.299,1.821-12.986,1.821-19.285,0c-5.608,0.692-11.092,2.157-16.299,4.352
			c-16.898,6.942-30.303,20.376-37.205,37.291c-25.62-28.212-29.424-69.995-9.319-102.369s59.243-47.49,95.89-37.033
			C315.072,55.398,340.34,88.89,340.333,127z"/>
		<path style="fill:#E91E63;" d="M169.667,246.467v42.667h-46.933c-11.782,0-21.333-9.551-21.333-21.333s9.551-21.333,21.333-21.333
			H169.667z"/>
		<path style="fill:#AD1457;" d="M237.933,267.8c0.017,5.663-2.225,11.099-6.229,15.104c-4.004,4.005-9.441,6.247-15.104,6.229
			l-46.933,0v-42.667H216.6C228.38,246.471,237.929,256.02,237.933,267.8z"/>
		<path style="fill:#2E7D32;" d="M408.6,267.8c0.017,5.663-2.225,11.099-6.229,15.104s-9.441,6.247-15.104,6.229l-46.933,0v-42.667
			h46.933C399.047,246.471,408.596,256.02,408.6,267.8z"/>
		<g>
			<path style="fill:#4CAF50;" d="M340.333,246.467v42.667H293.4c-11.782,0-21.333-9.551-21.333-21.333s9.551-21.333,21.333-21.333
				H340.333z"/>
			<path style="fill:#4CAF50;" d="M169.667,323.267v42.667h-46.933c-7.622,0-14.664-4.066-18.475-10.667
				c-3.811-6.601-3.811-14.733,0-21.333c3.811-6.601,10.854-10.667,18.475-10.667H169.667z"/>
		</g>
		<path style="fill:#2E7D32;" d="M237.933,344.6c0.017,5.663-2.225,11.099-6.229,15.104c-4.004,4.005-9.441,6.247-15.104,6.229
			l-46.933,0v-42.667H216.6C228.38,323.271,237.929,332.82,237.933,344.6z"/>
		<path style="fill:#E91E63;" d="M340.333,323.267v42.667H293.4c-7.622,0-14.664-4.066-18.475-10.667
			c-3.811-6.601-3.811-14.733,0-21.333c3.811-6.601,10.854-10.667,18.475-10.667H340.333z"/>
		<path style="fill:#AD1457;" d="M408.6,344.6c0.017,5.663-2.225,11.099-6.229,15.104c-4.005,4.005-9.441,6.247-15.104,6.229
			l-46.933,0v-42.667h46.933C399.047,323.271,408.596,332.82,408.6,344.6z"/>
		<g>
			<polygon style="fill:#4CAF50;" points="152.6,400.067 163.147,422.663 186.733,426.29 169.667,443.877 173.694,468.717 
				152.6,456.993 131.506,468.717 135.533,443.877 118.467,426.29 142.053,422.663 			"/>
			<polygon style="fill:#4CAF50;" points="255,400.067 265.547,422.663 289.133,426.29 272.067,443.877 276.094,468.717 
				255,456.993 233.906,468.717 237.933,443.877 220.867,426.29 244.453,422.663 			"/>
			<polygon style="fill:#4CAF50;" points="357.4,400.067 367.947,422.663 391.533,426.29 374.467,443.877 378.494,468.717 
				357.4,456.993 336.306,468.717 340.333,443.877 323.267,426.29 346.853,422.663 			"/>
		</g>
		<g>
			<path style="fill:#F5F5F5;" d="M318.147,184.344c-16.156,17.823-39.091,27.989-63.147,27.989s-46.991-10.166-63.147-27.989
				c6.903-16.914,20.307-30.349,37.205-37.291c5.206-2.195,10.691-3.66,16.299-4.352c6.299,1.821,12.986,1.821,19.285,0
				c5.608,0.692,11.092,2.157,16.299,4.352C297.84,153.995,311.244,167.43,318.147,184.344z"/>
			<path style="fill:#F5F5F5;" d="M289.133,109.933c0.006,15.145-9.964,28.485-24.491,32.768c-6.299,1.821-12.986,1.821-19.285,0
				c-16.882-4.964-27.227-21.946-23.894-39.224s19.251-29.194,36.769-27.523C275.749,77.626,289.128,92.336,289.133,109.933z"/>
		</g>
	</g>
	<g>
		<path d="M426.667,0H85.333c-14.132,0.015-25.585,11.468-25.6,25.6v460.8c0.015,14.132,11.468,25.585,25.6,25.6h341.333
			c14.132-0.015,25.585-11.468,25.6-25.6V25.6C452.251,11.468,440.799,0.015,426.667,0z M435.2,486.4
			c-0.006,4.71-3.823,8.527-8.533,8.533H85.333c-4.71-0.006-8.527-3.823-8.533-8.533V25.6c0.006-4.71,3.823-8.527,8.533-8.533
			h341.333c4.71,0.006,8.527,3.823,8.533,8.533V486.4z"/>
		<path d="M187.177,191.614c17.691,19.278,42.657,30.253,68.823,30.253c26.166,0,51.132-10.974,68.823-30.253
			c0.281-0.267,0.542-0.555,0.781-0.859c33.966-37.539,32.044-95.251-4.344-130.447s-94.131-35.196-130.52,0
			s-38.31,92.908-4.344,130.447C186.635,191.06,186.896,191.347,187.177,191.614z M203.112,183.545
			c6.525-12.466,17.226-22.24,30.23-27.611c4.149-1.729,8.501-2.922,12.952-3.55c6.369,1.622,13.043,1.622,19.412,0
			c4.469,0.633,8.84,1.831,13.006,3.566c12.982,5.377,23.662,15.144,30.176,27.595C279.324,211.885,232.676,211.885,203.112,183.545
			L203.112,183.545z M256,136.533c-14.138,0-25.6-11.462-25.6-25.6s11.462-25.6,25.6-25.6c14.139,0,25.6,11.462,25.6,25.6
			C281.585,125.065,270.132,136.518,256,136.533z M256,51.2c28.127-0.042,54.02,15.318,67.467,40.022
			c13.448,24.704,12.292,54.787-3.011,78.387c-8.239-12.77-20.077-22.813-34.02-28.86c16.445-16.74,16.286-43.618-0.357-60.161
			s-43.521-16.542-60.162,0.003c-16.641,16.545-16.798,43.423-0.35,60.161c-13.941,6.049-25.78,16.09-34.022,28.858
			c-15.304-23.599-16.46-53.683-3.012-78.388S227.873,51.158,256,51.2z"/>
		<path d="M123.733,298.667H217.6c16.495,0,29.867-13.372,29.867-29.867c0-16.495-13.372-29.867-29.867-29.867h-93.867
			c-16.495,0-29.867,13.372-29.867,29.867C93.867,285.295,107.238,298.667,123.733,298.667z M230.4,268.8
			c-0.008,7.066-5.734,12.792-12.8,12.8h-38.4V256h38.4C224.666,256.008,230.392,261.734,230.4,268.8z M123.733,256h38.4v25.6h-38.4
			c-7.069,0-12.8-5.731-12.8-12.8S116.664,256,123.733,256z"/>
		<path d="M388.267,238.933H294.4c-16.495,0-29.867,13.372-29.867,29.867c0,16.495,13.372,29.867,29.867,29.867h93.867
			c16.495,0,29.867-13.372,29.867-29.867C418.133,252.305,404.762,238.933,388.267,238.933z M281.6,268.8
			c0.008-7.066,5.734-12.792,12.8-12.8h38.4v25.6h-38.4C287.334,281.592,281.608,275.866,281.6,268.8z M388.267,281.6h-38.4V256
			h38.4c7.069,0,12.8,5.731,12.8,12.8S395.336,281.6,388.267,281.6z"/>
		<path d="M217.6,375.467c16.495,0,29.867-13.372,29.867-29.867c0-16.495-13.372-29.867-29.867-29.867h-93.867
			c-16.495,0-29.867,13.372-29.867,29.867c0,16.495,13.372,29.867,29.867,29.867H217.6z M230.4,345.6
			c-0.008,7.066-5.734,12.792-12.8,12.8h-38.4v-25.6h38.4C224.666,332.808,230.392,338.534,230.4,345.6z M110.933,345.6
			c0.008-7.066,5.734-12.792,12.8-12.8h38.4v25.6h-38.4C116.667,358.392,110.941,352.666,110.933,345.6z"/>
		<path d="M388.267,315.733H294.4c-16.495,0-29.867,13.372-29.867,29.867c0,16.495,13.372,29.867,29.867,29.867h93.867
			c16.495,0,29.867-13.372,29.867-29.867C418.133,329.105,404.762,315.733,388.267,315.733z M281.6,345.6
			c0.008-7.066,5.734-12.792,12.8-12.8h38.4v25.6h-38.4C287.334,358.392,281.608,352.666,281.6,345.6z M388.267,358.4h-38.4v-25.6
			h38.4c7.069,0,12.8,5.731,12.8,12.8C401.067,352.669,395.336,358.4,388.267,358.4z"/>
		<path d="M189.029,418.854l-19.079-2.929l-8.617-18.467c-1.402-3.005-4.418-4.925-7.733-4.925s-6.331,1.92-7.733,4.925
			l-8.616,18.467l-19.079,2.929c-3.155,0.485-5.775,2.691-6.792,5.717c-1.017,3.026-0.259,6.366,1.963,8.658l14.083,14.517
			l-3.346,20.604c-0.523,3.228,0.844,6.471,3.521,8.35c2.676,1.879,6.191,2.064,9.05,0.475l16.95-9.421l16.95,9.421
			c2.858,1.589,6.373,1.404,9.05-0.475s4.044-5.122,3.521-8.35l-3.346-20.604l14.083-14.517c2.222-2.292,2.979-5.632,1.963-8.658
			C194.804,421.545,192.184,419.339,189.029,418.854L189.029,418.854z M164.542,438.938c-1.878,1.936-2.73,4.646-2.3,7.308
			l1.212,7.458l-5.708-3.171c-2.578-1.433-5.714-1.433-8.292,0l-5.708,3.171l1.212-7.458c0.43-2.663-0.422-5.372-2.3-7.308
			l-5.554-5.725l7.246-1.112c2.817-0.432,5.232-2.242,6.437-4.825l2.813-6.029l2.813,6.029c1.205,2.583,3.62,4.393,6.437,4.825
			l7.246,1.112L164.542,438.938z"/>
		<path d="M291.429,418.854l-19.079-2.929l-8.617-18.467c-1.402-3.005-4.418-4.925-7.733-4.925s-6.331,1.92-7.733,4.925
			l-8.616,18.467l-19.079,2.929c-3.155,0.485-5.775,2.691-6.792,5.717c-1.017,3.026-0.259,6.366,1.963,8.658l14.083,14.517
			l-3.346,20.604c-0.523,3.228,0.844,6.471,3.521,8.35c2.676,1.879,6.191,2.064,9.05,0.475l16.95-9.421l16.95,9.421
			c2.858,1.589,6.373,1.404,9.05-0.475s4.044-5.122,3.521-8.35l-3.346-20.604l14.083-14.517c2.222-2.292,2.979-5.632,1.963-8.658
			C297.204,421.545,294.584,419.339,291.429,418.854L291.429,418.854z M266.942,438.938c-1.878,1.936-2.73,4.646-2.3,7.308
			l1.212,7.458l-5.708-3.171c-2.578-1.433-5.714-1.433-8.292,0l-5.708,3.171l1.213-7.458c0.43-2.663-0.422-5.372-2.3-7.308
			l-5.554-5.725l7.246-1.112c2.817-0.432,5.232-2.242,6.437-4.825l2.812-6.029l2.813,6.029c1.205,2.583,3.62,4.393,6.437,4.825
			l7.246,1.112L266.942,438.938z"/>
		<path d="M393.829,418.854l-19.079-2.929l-8.617-18.467c-1.402-3.005-4.418-4.925-7.733-4.925s-6.331,1.92-7.733,4.925
			l-8.616,18.467l-19.079,2.929c-3.155,0.485-5.775,2.691-6.792,5.717c-1.017,3.026-0.259,6.366,1.963,8.658l14.083,14.517
			l-3.346,20.604c-0.523,3.228,0.844,6.471,3.521,8.35c2.676,1.879,6.191,2.064,9.05,0.475l16.95-9.421l16.95,9.421
			c2.858,1.589,6.373,1.404,9.05-0.475c2.677-1.879,4.044-5.122,3.521-8.35l-3.346-20.604l14.083-14.517
			c2.222-2.292,2.979-5.632,1.963-8.658C399.604,421.545,396.984,419.339,393.829,418.854L393.829,418.854z M369.342,438.938
			c-1.878,1.936-2.73,4.646-2.3,7.308l1.212,7.458l-5.708-3.171c-2.578-1.433-5.714-1.433-8.292,0l-5.708,3.171l1.213-7.458
			c0.43-2.663-0.422-5.372-2.3-7.308l-5.554-5.725l7.246-1.112c2.817-0.432,5.232-2.242,6.437-4.825l2.813-6.029l2.813,6.029
			c1.205,2.583,3.62,4.393,6.437,4.825l7.246,1.112L369.342,438.938z"/>
	</g>
</g>
<g>
</g>
<g>
</g>
<g>
</g>
<g>
</g>
<g>
</g>
<g>
</g>
<g>
</g>
<g>
</g>
<g>
</g>
<g>
</g>
<g>
</g>
<g>
</g>
<g>
</g>
<g>
</g>
<g>
</g>
</svg>
