<?xml version="1.0" encoding="iso-8859-1"?>
<!-- Generator: Adobe Illustrator 19.0.0, SVG Export Plug-In . SVG Version: 6.00 Build 0)  -->
<svg version="1.1" id="Capa_1" xmlns="http://www.w3.org/2000/svg" xmlns:xlink="http://www.w3.org/1999/xlink" x="0px" y="0px"
	 viewBox="0 0 512 512" style="enable-background:new 0 0 512 512;" xml:space="preserve">
<path style="fill:#0054A0;" d="M471.966,100.175c-4.268,0-7.726,3.459-7.726,7.726v17.997h-13.58c-4.268,0-7.726,3.459-7.726,7.726
	s3.459,7.726,7.726,7.726h13.579v127.26c0,4.267,3.459,7.726,7.726,7.726c4.268,0,7.726-3.459,7.726-7.726V107.9
	C479.692,103.634,476.234,100.175,471.966,100.175z"/>
<path style="fill:#E50A82;" d="M437.731,96.466h-23.178V71.343c0-6.4,5.189-11.589,11.589-11.589l0,0
	c6.4,0,11.589,5.189,11.589,11.589L437.731,96.466L437.731,96.466z"/>
<path style="fill:#FF2796;" d="M444.986,96.003v277.562l-1.576,4.265h-34.398l-1.71-4.265V96.003c0-2.884,2.328-5.213,5.213-5.213
	h27.259C442.648,90.79,444.986,93.118,444.986,96.003z"/>
<path style="fill:#E50A82;" d="M444.986,96.005v277.558h-12.872V96.005c0-2.881-2.332-5.224-5.213-5.224h12.873
	C442.645,90.782,444.986,93.124,444.986,96.005z"/>
<rect x="407.3" y="266" style="fill:#5A9BCC;" width="37.69" height="107.57"/>
<rect x="432.11" y="266" style="fill:#1E70AD;" width="12.871" height="107.57"/>
<path style="fill:#0054A0;" d="M450.684,120.325v91.089c0,4.553-3.698,8.241-8.241,8.241h-32.595c-4.553,0-8.241-3.688-8.241-8.241
	v-91.089c0-4.553,3.688-8.241,8.241-8.241h32.595C446.985,112.084,450.684,115.772,450.684,120.325z"/>
<path style="fill:#003A7F;" d="M450.684,120.325v91.089c0,4.553-3.698,8.241-8.241,8.241h-10.333V112.084h10.333
	C446.985,112.084,450.684,115.772,450.684,120.325z"/>
<rect x="407.3" y="233.7" style="fill:#0054A0;" width="37.684" height="15.453"/>
<path style="fill:#E50A82;" d="M407.297,373.569l15.669,38.824c1.409,3.492,6.378,3.42,7.686-0.111l14.335-38.713H407.297z"/>
<path style="fill:#D2E3F1;" d="M354.767,512H40.549c-4.552,0-8.241-3.69-8.241-8.241V8.241C32.308,3.69,35.997,0,40.549,0h314.218
	c4.552,0,8.241,3.69,8.241,8.241v495.517C363.009,508.31,359.319,512,354.767,512z"/>
<g>
	<path style="fill:#A5C6E3;" d="M48.891,512h-8.342c-4.552,0-8.241-3.69-8.241-8.241V8.241C32.308,3.69,35.997,0,40.549,0h8.342V512
		z"/>
	<path style="fill:#A5C6E3;" d="M354.767,512h-8.342V0h8.342c4.552,0,8.241,3.69,8.241,8.241v495.517
		C363.009,508.31,359.319,512,354.767,512z"/>
</g>
<g>
	<path style="fill:#5A9BCC;" d="M309.076,161.119H156.758c-4.268,0-7.726-3.459-7.726-7.726s3.459-7.726,7.726-7.726h152.317
		c4.268,0,7.726,3.459,7.726,7.726S313.342,161.119,309.076,161.119z"/>
	<path style="fill:#5A9BCC;" d="M126.702,161.119H86.241c-4.268,0-7.726-3.459-7.726-7.726s3.459-7.726,7.726-7.726h40.461
		c4.268,0,7.726,3.459,7.726,7.726S130.969,161.119,126.702,161.119z"/>
	<path style="fill:#5A9BCC;" d="M115.78,218.225H86.241c-4.268,0-7.726-3.459-7.726-7.726s3.459-7.726,7.726-7.726h29.539
		c4.268,0,7.726,3.459,7.726,7.726S120.048,218.225,115.78,218.225z"/>
	<path style="fill:#5A9BCC;" d="M156.758,239.991H86.241c-4.268,0-7.726-3.459-7.726-7.726s3.459-7.726,7.726-7.726h70.517
		c4.268,0,7.726,3.459,7.726,7.726S161.025,239.991,156.758,239.991z"/>
	<path style="fill:#5A9BCC;" d="M106.471,277.2h-20.23c-4.268,0-7.726-3.459-7.726-7.726s3.459-7.726,7.726-7.726h20.23
		c4.268,0,7.726,3.459,7.726,7.726C114.197,273.741,110.739,277.2,106.471,277.2z"/>
	<path style="fill:#5A9BCC;" d="M106.471,301.038h-20.23c-4.268,0-7.726-3.459-7.726-7.726s3.459-7.726,7.726-7.726h20.23
		c4.268,0,7.726,3.459,7.726,7.726C114.197,297.579,110.739,301.038,106.471,301.038z"/>
	<path style="fill:#5A9BCC;" d="M106.471,324.876h-20.23c-4.268,0-7.726-3.459-7.726-7.726s3.459-7.726,7.726-7.726h20.23
		c4.268,0,7.726,3.459,7.726,7.726C114.197,321.417,110.739,324.876,106.471,324.876z"/>
	<path style="fill:#5A9BCC;" d="M106.471,348.714h-20.23c-4.268,0-7.726-3.459-7.726-7.726s3.459-7.726,7.726-7.726h20.23
		c4.268,0,7.726,3.459,7.726,7.726C114.197,345.255,110.739,348.714,106.471,348.714z"/>
	<path style="fill:#5A9BCC;" d="M309.076,277.2H136.816c-4.268,0-7.726-3.459-7.726-7.726s3.459-7.726,7.726-7.726h172.259
		c4.268,0,7.726,3.459,7.726,7.726C316.801,273.741,313.342,277.2,309.076,277.2z"/>
	<path style="fill:#5A9BCC;" d="M183.148,301.038h-46.332c-4.268,0-7.726-3.459-7.726-7.726s3.459-7.726,7.726-7.726h46.332
		c4.268,0,7.726,3.459,7.726,7.726C190.875,297.579,187.416,301.038,183.148,301.038z"/>
	<path style="fill:#5A9BCC;" d="M257.772,324.876H136.816c-4.268,0-7.726-3.459-7.726-7.726s3.459-7.726,7.726-7.726h120.956
		c4.268,0,7.726,3.459,7.726,7.726C265.498,321.417,262.04,324.876,257.772,324.876z"/>
	<path style="fill:#5A9BCC;" d="M293.01,348.714H136.816c-4.268,0-7.726-3.459-7.726-7.726s3.459-7.726,7.726-7.726H293.01
		c4.268,0,7.726,3.459,7.726,7.726C300.737,345.255,297.279,348.714,293.01,348.714z"/>
	<path style="fill:#5A9BCC;" d="M206.17,393.281H86.241c-4.268,0-7.726-3.459-7.726-7.726s3.459-7.726,7.726-7.726h119.93
		c4.268,0,7.726,3.459,7.726,7.726C213.897,389.822,210.438,393.281,206.17,393.281z"/>
	<path style="fill:#5A9BCC;" d="M206.17,423.338H86.241c-4.268,0-7.726-3.459-7.726-7.726s3.459-7.726,7.726-7.726h119.93
		c4.268,0,7.726,3.459,7.726,7.726C213.897,419.878,210.438,423.338,206.17,423.338z"/>
	<path style="fill:#5A9BCC;" d="M106.471,467.788h-20.23c-4.268,0-7.726-3.459-7.726-7.726s3.459-7.726,7.726-7.726h20.23
		c4.268,0,7.726,3.459,7.726,7.726C114.197,464.329,110.739,467.788,106.471,467.788z"/>
</g>
<g>
	<path style="fill:#FF2796;" d="M171.801,113.966c-9.186,0-18.372-3.497-25.366-10.49c-13.987-13.987-13.987-36.745,0-50.732
		c6.776-6.776,15.785-10.507,25.366-10.507c9.583,0,18.592,3.731,25.367,10.507c3.017,3.017,3.017,7.909,0,10.927
		c-3.018,3.017-7.909,3.017-10.928,0c-7.961-7.961-20.915-7.962-28.878,0c-7.963,7.962-7.963,20.917,0,28.879
		c3.856,3.857,8.985,5.981,14.439,5.981c5.455,0,10.583-2.124,14.44-5.981c3.018-3.017,7.909-3.017,10.928,0
		c3.017,3.017,3.017,7.909,0,10.927C190.174,110.469,180.988,113.966,171.801,113.966z"/>
	<path style="fill:#FF2796;" d="M232.917,110.774c-3.003,0-5.734-1.74-7.003-4.463l-23.241-49.875
		c-1.803-3.868-0.129-8.464,3.739-10.267c3.866-1.802,8.465-0.127,10.267,3.74l16.238,34.847l16.238-34.847
		c1.801-3.867,6.395-5.543,10.267-3.74c3.868,1.803,5.542,6.399,3.739,10.267l-23.241,49.875
		C238.651,109.033,235.92,110.774,232.917,110.774z"/>
	<path style="fill:#FF2796;" d="M301.561,460.062h-51.36c-4.15,0-7.514-3.364-7.514-7.514v-63.624c0-4.15,3.364-7.514,7.514-7.514
		h51.36c4.15,0,7.514,3.364,7.514,7.514v63.624C309.076,456.697,305.711,460.062,301.561,460.062z"/>
</g>
<g>
</g>
<g>
</g>
<g>
</g>
<g>
</g>
<g>
</g>
<g>
</g>
<g>
</g>
<g>
</g>
<g>
</g>
<g>
</g>
<g>
</g>
<g>
</g>
<g>
</g>
<g>
</g>
<g>
</g>
</svg>
