<svg height="479pt" viewBox="-37 0 479 479.712" width="479pt" xmlns="http://www.w3.org/2000/svg"><path d="m147.542969 264v16h-48v-136h48v16h8c26.507812 0 48-21.492188 48-48v-24h16c8.824219.027344 15.972656 7.175781 16 16v48h63.101562c8.511719-.164062 15.769531 6.132812 16.800781 14.585938.367188 4.457031-1.136718 8.867187-4.15625 12.171874-3.015624 3.304688-7.273437 5.203126-11.746093 5.242188h-8c5.382812.011719 10.402343 2.734375 13.351562 7.238281 26.808594-32.148437 43.886719-71.28125 49.230469-112.796875-10.457031-6.402344-26.671875-6.984375-35.941406-14.402344-11.25-8.941406-15.027344-30.078124-28-36.320312-12.976563-6.238281-31.746094 4-45.832032.800781-13.859374-3.199219-26.402343-20.609375-40.960937-20.582031-14.082031.0625-26.59375 17.421875-40.914063 20.703125-14.320312 3.28125-33.152343-6.929687-45.847656-.800781-13.109375 6.3125-16.800781 27.480468-27.925781 36.359375-11.28125 9.015625-32.714844 8-41.601563 19.199219-8.886718 11.203124-3.144531 31.921874-9.382812 44.875-6.242188 12.949218-26.015625 21.246093-29.234375 35.335937-3.199219 13.855469 10.992187 29.941406 11.015625 44.496094 0 14.09375-14.191406 30.207031-10.910156 44.527343 3.28125 14.320313 23.078125 22.640626 29.191406 35.367188 5.488281 11.390625 1.886719 28.464844 6.671875 40 51.75-8.296875 101.890625-24.59375 148.625-48.3125-16.265625-1.273438-31.9375-6.671875-45.535156-15.6875zm0 0" fill="#ffcd00"/><path d="m387.582031 207.894531c0-14.101562 14.191407-30.207031 10.910157-44.535156-3.277344-14.328125-23.078126-22.632813-29.191407-35.359375-6.3125-13.113281-.566406-33.753906-9.445312-44.855469-1.617188-1.90625-3.558594-3.511719-5.730469-4.746093-5.34375 41.519531-22.421875 80.652343-49.230469 112.800781 1.730469 2.609375 2.652344 5.671875 2.648438 8.800781-.066407 8.808594-7.191407 15.933594-16 16h-8c8.824219.027344 15.972656 7.175781 16 16-.066407 8.808594-7.191407 15.933594-16 16h-8c8.824219.027344 15.972656 7.175781 16 16-.066407 8.808594-7.191407 15.933594-16 16h-74.9375c-2.519531 0-5.03125-.113281-7.527344-.3125-46.734375 23.71875-96.875 40.015625-148.625 48.3125.695313 1.722656 1.628906 3.339844 2.777344 4.800781 3.925781 4.277344 9.003906 7.332031 14.625 8.800781 9.507812 1.972657 18.636719 5.453126 27.046875 10.308594 11.246094 8.953125 15.023437 30.089844 28 36.328125 12.976562 6.242188 31.742187-4 45.832031-.796875.550781.125 1.09375.40625 1.648437.574219 13.207032 4.089844 25.34375 20 39.3125 20 13.46875 0 25.511719-15.75 39.046876-20 .632812-.199219 1.246093-.511719 1.886718-.65625 14.320313-3.28125 33.152344 6.929687 45.847656.800781 13.113282-6.3125 16.800782-27.480468 27.929688-36.359375 8.296875-4.898437 17.339844-8.410156 26.769531-10.402343 5.695313-1.453126 10.851563-4.527344 14.847657-8.847657 8.941406-11.246093 3.140624-31.917969 9.382812-44.871093 6.238281-12.953126 26-21.246094 29.214844-35.335938 3.144531-13.808594-11.015625-29.894531-11.039063-44.449219zm0 0" fill="#dfb300"/><path d="m333.636719 146.574219c-24.761719-52.617188-78.761719-85.160157-136.855469-82.464844-58.09375 2.691406-108.851562 40.089844-128.640625 94.773437-19.785156 54.6875-4.710937 115.90625 38.210937 155.148438 106.476563-30.832031 189.703126-91.871094 227.285157-167.457031zm0 0" fill="#d80027"/><path d="m106.351562 314.03125c50.644532 46.65625 127.261719 50.851562 182.699219 10.003906 55.441407-40.84375 74.136719-115.261718 44.585938-177.460937-37.582031 75.585937-120.808594 136.625-227.285157 167.457031zm0 0" fill="#bd0022"/><path d="m290.453125 388.175781c-12.695313 6.113281-31.527344-4.097656-45.847656-.800781-.640625.144531-1.253907.457031-1.886719.65625l48.34375 83.648438 32.480469-55.679688 64.480469-.320312-42.882813-74.230469c-9.425781 1.988281-18.46875 5.5-26.765625 10.398437-11.097656 8.847656-14.832031 30.015625-27.921875 36.328125zm0 0" fill="#2077df"/><path d="m116.878906 388.257812c-12.953125-6.242187-16.730468-27.378906-28-36.328124-8.402344-4.863282-17.523437-8.347657-27.023437-10.328126l-42.792969 74.078126 64.480469.320312 32.480469 55.679688 48.320312-83.679688c-.554688-.167969-1.097656-.449219-1.648438-.574219-14.074218-3.1875-32.929687 7.039063-45.816406.832031zm0 0" fill="#2488ff"/><path d="m147.542969 144h-48v136h48zm0 0" fill="#006df0"/><path d="m235.542969 104c-.027344-8.824219-7.175781-15.972656-16-16h-16v24c0 26.507812-21.492188 48-48 48h-8v104c15.726562 10.429688 34.175781 15.996094 53.046875 16h74.953125c8.808593-.066406 15.933593-7.191406 16-16-.027344-8.824219-7.175781-15.972656-16-16h8c8.808593-.066406 15.933593-7.191406 16-16-.027344-8.824219-7.175781-15.972656-16-16h8c8.808593-.066406 15.933593-7.191406 16-16-.027344-8.824219-7.175781-15.972656-16-16h8c4.480469-.03125 8.742187-1.925781 11.769531-5.230469 3.023438-3.304687 4.53125-7.71875 4.164062-12.183593-1.03125-8.464844-8.308593-14.769532-16.832031-14.585938h-63.101562zm0 0" fill="#ffe477"/><g fill="#231f20"><path d="m147.542969 288h-48c-4.417969 0-8-3.582031-8-8v-136c0-4.417969 3.582031-8 8-8h48c4.417969 0 8 3.582031 8 8v136c0 4.417969-3.582031 8-8 8zm-40-16h32v-120h-32zm0 0"/><path d="m275.542969 288h-74.9375c-20.425781.019531-40.402344-5.996094-57.421875-17.289062-2.265625-1.484376-3.632813-4.003907-3.640625-6.710938v-104c0-4.417969 3.582031-8 8-8h8c22.078125-.027344 39.972656-17.917969 40-40v-24c0-4.417969 3.582031-8 8-8h16c13.253906 0 24 10.746094 24 24v40h55.101562c12.679688-.175781 23.414063 9.308594 24.800781 21.910156.644532 7.105469-1.941406 14.121094-7.046874 19.105469-1.1875 1.214844-2.507813 2.285156-3.9375 3.199219 2.027343 3.597656 3.089843 7.65625 3.082031 11.785156.039062 6.410156-2.542969 12.554688-7.144531 17.015625-1.1875 1.214844-2.507813 2.285156-3.9375 3.199219 2.027343 3.597656 3.089843 7.65625 3.082031 11.785156.039062 6.410156-2.542969 12.554688-7.144531 17.015625-1.1875 1.214844-2.507813 2.285156-3.9375 3.199219 2.027343 3.597656 3.089843 7.65625 3.082031 11.785156-.066407 13.226562-10.773438 23.933594-24 24zm-120-28.414062c13.621093 8.136718 29.195312 12.429687 45.0625 12.414062h74.9375c2.082031.019531 4.082031-.808594 5.542969-2.296875 1.570312-1.480469 2.460937-3.542969 2.457031-5.703125 0-4.417969-3.582031-8-8-8s-8-3.582031-8-8 3.582031-8 8-8h8c2.082031.019531 4.082031-.808594 5.542969-2.296875 1.570312-1.480469 2.460937-3.542969 2.457031-5.703125 0-4.417969-3.582031-8-8-8s-8-3.582031-8-8 3.582031-8 8-8h8c2.082031.019531 4.082031-.808594 5.542969-2.296875 1.570312-1.480469 2.460937-3.542969 2.457031-5.703125 0-4.417969-3.582031-8-8-8s-8-3.582031-8-8 3.582031-8 8-8h8c2.082031.019531 4.082031-.808594 5.542969-2.296875 1.738281-1.652344 2.621093-4.011719 2.398437-6.398437-.683594-4.316407-4.472656-7.445313-8.839844-7.304688h-63.101562c-4.417969 0-8-3.582031-8-8v-48c0-4.417969-3.582031-8-8-8h-8v16c-.039063 30.910156-25.089844 55.960938-56 56zm0 0"/><path d="m307.542969 116.425781c-2.1875 0-4.277344-.894531-5.785157-2.472656-2.289062-2.390625-4.660156-4.695313-7.121093-6.921875-2.273438-1.875-3.328125-4.851562-2.75-7.742188.578125-2.890624 2.703125-5.226562 5.523437-6.082031 2.820313-.855469 5.886719-.089843 7.972656 1.992188 2.746094 2.480469 5.414063 5.058593 8 7.730469 2.199219 2.324218 2.796876 5.734374 1.527344 8.671874-1.269531 2.9375-4.167968 4.832032-7.367187 4.824219zm0 0"/><path d="m400.734375 225.105469c-2.738281-5.386719-4.484375-11.222657-5.152344-17.226563.664063-5.761718 2.355469-11.359375 4.992188-16.527344 4.980469-9.078124 6.980469-19.492187 5.71875-29.765624-3.332031-9.804688-9.660157-18.308594-18.09375-24.3125-4.628907-3.507813-8.585938-7.816407-11.6875-12.722657-2.007813-5.691406-2.972657-11.699219-2.851563-17.734375.523438-10.105468-2.121094-20.117187-7.558594-28.648437-7.191406-7.273438-16.476562-12.117188-26.558593-13.847657-5.796875-1.171874-11.335938-3.375-16.351563-6.503906-4.21875-4.214844-7.644531-9.152344-10.121094-14.578125-3.9375-9.398437-10.707031-17.339843-19.367187-22.710937-9.566406-3.410156-19.953125-3.753906-29.722656-.976563-5.8125 1.464844-11.84375 1.871094-17.796875 1.191407-5.546875-1.945313-10.695313-4.871094-15.203125-8.636719-7.691407-6.808594-17.324219-11.042969-27.542969-12.105469-9.988281 1.046875-19.394531 5.222656-26.871094 11.929688-4.691406 3.917968-10.054687 6.953124-15.832031 8.949218-6.074219.699219-12.21875.300782-18.152344-1.167968-9.648437-2.785157-19.933593-2.453126-29.382812.945312-8.765625 5.40625-15.605469 13.433594-19.554688 22.945312-2.410156 5.351563-5.761719 10.226563-9.894531 14.398438-5.066406 3.203125-10.667969 5.464844-16.535156 6.679688-10.011719 1.710937-19.242188 6.507812-26.394532 13.71875-5.460937 8.601562-8.105468 18.691406-7.558593 28.867187.140625 5.957031-.796875 11.894531-2.769531 17.519531-3.152344 5.003906-7.179688 9.398438-11.886719 12.984375-8.332031 5.929688-14.597657 14.324219-17.910157 24-1.191406 10.039063.785157 20.203125 5.65625 29.0625 2.757813 5.402344 4.515626 11.257813 5.191407 17.289063-.667969 5.761718-2.355469 11.359375-4.992188 16.527344-4.992187 9.066406-7.007812 19.476562-5.761719 29.75 3.332032 9.804687 9.664063 18.308593 18.097657 24.3125 4.625 3.507812 8.582031 7.816406 11.6875 12.722656 2.003906 5.691406 2.96875 11.699218 2.847656 17.734375-.523437 10.101562 2.121094 20.117187 7.558594 28.648437 2.59375 3.148438 5.800781 5.734375 9.425781 7.609375l-38.273438 66.253907c-1.425781 2.46875-1.429687 5.511718-.007812 7.988281 1.421875 2.472656 4.050781 4 6.90625 4.011719l59.902344.320312 30.207031 51.710938c1.429687 2.472656 4.066406 4 6.921875 4 2.851562-.003907 5.484375-1.527344 6.910156-4l44.753906-77.4375c2.695313 1.597656 5.496094 3.574218 8.390626 5.65625 7.691406 6.824218 17.328124 11.070312 27.550781 12.140624h.042969c9.988281-1.046874 19.390624-5.222656 26.871093-11.925781 3.03125-2.175781 5.960938-4.25 8.800781-5.90625l44.800782 77.472657c1.425781 2.472656 4.058594 3.996093 6.910156 4 2.855469 0 5.492188-1.527344 6.921875-4l30.132813-51.710938 59.90625-.296875c2.851562-.011719 5.480468-1.539063 6.902343-4.011719s1.417969-5.515625-.007812-7.988281l-38.335938-66.398437c3.714844-1.875 7-4.496094 9.648438-7.703126 5.464843-8.601562 8.105469-18.691406 7.558593-28.867187-.136718-5.957031.800782-11.894531 2.769532-17.519531 3.15625-5.003906 7.179687-9.398438 11.886718-12.984375 8.339844-5.941407 14.601563-14.347657 17.914063-24.039063 1.195313-10.046875-.78125-20.21875-5.65625-29.085937zm-284.746094 230.648437-25.535156-43.753906c-1.417969-2.457031-4.035156-3.980469-6.871094-4l-50.695312-.246094 32.71875-56.632812 1.960937.558594c5.796875 1.171874 11.332032 3.375 16.351563 6.503906 4.21875 4.226562 7.648437 9.179687 10.121093 14.617187 3.933594 9.402344 10.703126 17.339844 19.367188 22.710938 9.5625 3.40625 19.953125 3.746093 29.71875.976562 2.710938-.480469 5.320312-.902343 7.832031-1.214843zm258.210938-48-50.65625.246094c-2.839844.019531-5.453125 1.542969-6.875 4l-25.535157 43.785156-35.085937-60.722656c2.726563.3125 5.597656.800781 8.535156 1.296875 9.648438 2.785156 19.933594 2.457031 29.382813-.945313 8.761718-5.40625 15.601562-13.433593 19.554687-22.941406 2.410157-5.351562 5.761719-10.230468 9.894531-14.402344 5.066407-3.199218 10.667969-5.464843 16.535157-6.679687l1.496093-.429687zm16.597656-157.144531c-2.78125 6.289063-7.246094 11.691406-12.902344 15.605469-6.386719 4.914062-11.730469 11.046875-15.730469 18.042968-2.988281 7.515626-4.460937 15.554688-4.328124 23.644532.464843 6.824218-.957032 13.640625-4.101563 19.714844-5.183594 4.402343-11.476563 7.304687-18.191406 8.382812-7.949219 1.699219-15.484375 4.960938-22.160157 9.601562-5.871093 5.417969-10.613281 11.941407-13.953124 19.199219-2.566407 6.433594-6.871094 12.027344-12.433594 16.160157-6.480469 1.648437-13.285156 1.511718-19.695313-.402344-8.011719-1.945313-16.332031-2.285156-24.480469-1-7.894531 2.382812-15.234374 6.308594-21.597656 11.554687-4.953125 4.511719-11.035156 7.59375-17.601562 8.925781-6.800782-1.308593-13.105469-4.476562-18.222656-9.144531-6.167969-5.082031-13.285157-8.886719-20.9375-11.199219-2.648438-.585937-5.351563-.871093-8.0625-.847656-5.394532.164063-10.761719.785156-16.046876 1.863282-6.511718 1.945312-13.425781 2.074218-20 .378906-5.488281-4.109375-9.738281-9.644532-12.296874-16-3.394532-7.351563-8.214844-13.957032-14.183594-19.425782-6.640625-4.554687-14.113282-7.746093-21.992188-9.390624-6.796875-1.0625-13.164062-3.984376-18.402344-8.441407-3.109374-6-4.519531-12.734375-4.078124-19.480469.125-8.160156-1.371094-16.269531-4.402344-23.847656-3.953125-6.894531-9.230469-12.933594-15.535156-17.777344-5.753907-3.972656-10.285157-9.476562-13.078126-15.886718-.269531-6.988282 1.417969-13.917969 4.871094-20 3.570313-7.09375 5.695313-14.828125 6.246094-22.75-.566406-8.144532-2.742188-16.09375-6.398438-23.394532-3.324218-5.882812-4.980468-12.558593-4.800781-19.3125 2.78125-6.289062 7.25-11.691406 12.90625-15.605468 6.382813-4.914063 11.730469-11.046875 15.726563-18.042969 2.992187-7.519531 4.460937-15.554687 4.328125-23.644531-.460938-6.824219.957031-13.644532 4.105469-19.714844 5.179687-4.398438 11.464843-7.296875 18.175781-8.375 7.949219-1.699219 15.480469-4.960938 22.160156-9.601562 5.867187-5.417969 10.609375-11.941407 13.949219-19.199219 2.570312-6.433594 6.871094-12.027344 12.433594-16.160157 6.480468-1.644531 13.285156-1.507812 19.695312.402344 8.015625 1.949219 16.335938 2.289063 24.480469 1 7.894531-2.382812 15.238281-6.308594 21.601562-11.554687 4.945313-4.488281 11.011719-7.558594 17.558594-8.886719 6.800781 1.3125 13.109375 4.476562 18.222656 9.144531 6.171875 5.082031 13.285157 8.886719 20.9375 11.199219 8.042969 1.265625 16.253907.917969 24.160157-1.023438 6.507812-1.949218 13.421874-2.078124 20-.375 5.484374 4.105469 9.738281 9.640626 12.296874 16 3.390626 7.351563 8.214844 13.953126 14.183594 19.421876 6.636719 4.554687 14.113282 7.746093 21.992188 9.394531 6.792968 1.058593 13.160156 3.980469 18.398437 8.4375 3.109375 6 4.519531 12.738281 4.082031 19.480469-.128906 8.164062 1.367188 16.269531 4.398438 23.847656 3.953125 6.894531 9.234375 12.9375 15.535156 17.777344 5.757813 3.960937 10.300782 9.449218 13.113282 15.847656.269531 6.988281-1.417969 13.914062-4.871094 20-3.570313 7.09375-5.695313 14.828125-6.25 22.75.570312 8.144531 2.742187 16.09375 6.402344 23.394531 3.3125 5.882813 4.964843 12.558594 4.773437 19.3125zm0 0"/><path d="m319.628906 122.398438c-3.691406 2.425781-4.722656 7.386718-2.296875 11.082031 37.726563 57.6875 26.285157 134.480469-26.621093 178.664062-52.902344 44.183594-130.507813 41.753907-180.546876-5.652343-50.039062-47.402344-56.65625-124.765626-15.398437-179.980469 41.261719-55.214844 117.328125-70.789063 176.96875-36.230469 2.480469 1.636719 5.660156 1.765625 8.265625.332031 2.601562-1.429687 4.199219-4.1875 4.140625-7.15625-.054687-2.972656-1.75-5.667969-4.40625-7-66.71875-38.59375-151.761719-21.117187-197.851563 40.65625-46.09375 61.773438-38.628906 148.273438 17.367188 201.238281 55.992188 52.964844 142.773438 55.613282 201.890625 6.160157 59.121094-49.453125 71.84375-135.339844 29.601563-199.808594-1.164063-1.785156-2.992188-3.03125-5.078126-3.460937-2.085937-.433594-4.257812-.015626-6.035156 1.15625zm0 0"/></g></svg>