<svg height="511pt" viewBox="-65 1 511 511.99938" width="511pt" xmlns="http://www.w3.org/2000/svg"><g fill-rule="evenodd"><path d="m213.90625 163.523438-18.507812-30.710938c-2.136719-3.679688-7.519532-3.796875-9.761719-.074219l-18.554688 30.785157-34.980469 8.128906c-4.070312.929687-5.847656 5.957031-3.015624 9.222656l23.53125 27.148438-3.066407 35.84375c-.347656 4.167968 3.890625 7.335937 7.832031 5.675781l33.113282-14 32.671875 13.816406c4.527343 2.144531 8.632812-1.449219 8.292969-5.492187l-3.089844-35.84375 23.371094-26.957032c3.101562-3.421875 1.253906-8.46875-2.851563-9.414062zm0 0" fill="#f4c66e"/><path d="m167.082031 163.523438 18.554688-30.785157c2.242187-3.722656 7.625-3.605469 9.761719.074219l18.507812 30.710938 34.980469 8.125c4.105469.949218 5.957031 5.996093 2.851562 9.417968l-23.367187 26.957032 3.085937 35.84375c.34375 4.042968-3.761719 7.632812-8.292969 5.492187l-32.671874-13.816406-33.109376 14c-3.941406 1.660156-8.179687-1.507813-7.835937-5.675781l3.070313-35.84375-23.535157-27.148438c-2.828125-3.265625-1.054687-8.292969 3.019531-9.222656zm23.417969-93.523438c-66.273438 0-120 53.722656-120 119.996094 0 66.277344 53.726562 120 120 120s120-53.722656 120-120c0-66.273438-53.726562-119.996094-120-119.996094zm0 0" fill="#fbdf95"/><path d="m70.5 189.996094c0-66.273438 53.726562-119.996094 120-119.996094s120 53.722656 120 119.996094c0 66.277344-53.726562 120-120 120-66.277344 0-120-53.722656-120-120zm158.820312-144.878906-38.820312-35.117188-38.820312 35.117188-51.179688-11.003907-16.0625 49.824219-49.824219 16.0625 11.003907 51.175781-35.117188 38.820313 35.117188 38.820312-11.003907 51.179688 49.824219 16.0625 2.855469 8.855468 13.207031 40.96875 51.175781-11.003906 21.710938 19.640625 17.113281 15.480469 17.109375-15.480469 21.710937-19.640625 51.179688 11.003906 13.207031-40.96875 2.851563-8.855468 49.824218-16.058594-11-51.179688 35.113282-38.824218-35.117188-38.816406 11.003906-51.179688-49.824218-16.0625-16.0625-49.824219zm0 0" fill="#ff836c"/><path d="m151.675781 334.878906-51.175781 11.003906-13.207031-40.96875-46.152344 172.238282 59.71875-37.417969 33.007813 62.265625 39.519531-147.480469zm0 0" fill="#fd4848"/><path d="m207.609375 354.519531 39.519531 147.480469 33.007813-62.265625 59.71875 37.417969-46.152344-172.238282-13.203125 40.96875-51.179688-11.003906zm0 0" fill="#fd4848"/></g><path d="m190.5 60c-18.125 0-35.726562 3.695312-52.316406 10.988281-5.054688 2.222657-7.351563 8.121094-5.132813 13.179688 2.222657 5.054687 8.125 7.355469 13.179688 5.128906 14.039062-6.167969 28.933593-9.296875 44.269531-9.296875 60.652344 0 110 49.34375 110 109.996094 0 60.65625-49.347656 110-110 110-60.65625 0-110-49.34375-110-110 0-19.28125 5.09375-38.300782 14.734375-54.996094 2.761719-4.785156 1.125-10.902344-3.660156-13.660156-4.78125-2.761719-10.898438-1.125-13.660157 3.660156-11.394531 19.734375-17.414062 42.210938-17.414062 64.996094 0 71.683594 58.316406 130 130 130 71.679688 0 130-58.316406 130-130 0-71.679688-58.320312-129.996094-130-129.996094zm0 0"/><path d="m377.914062 183.289062-31.679687-35.019531 9.925781-46.171875c1.078125-5.019531-1.820312-10.042968-6.710937-11.617187l-44.945313-14.488281-14.488281-44.945313c-1.574219-4.890625-6.597656-7.792969-11.621094-6.710937l-46.167969 9.925781-35.019531-31.679688c-3.808593-3.445312-9.609375-3.441406-13.417969 0l-35.019531 31.679688-46.171875-9.925781c-5.019531-1.085938-10.042968 1.820312-11.617187 6.710937l-14.488281 44.945313-44.945313 14.488281c-4.890625 1.574219-7.789063 6.597656-6.710937 11.617187l9.925781 46.171875-31.679688 35.019531c-3.445312 3.8125-3.445312 9.609376 0 13.417969l31.679688 35.019531-9.925781 46.171876c-1.078126 5.019531 1.820312 10.042968 6.710937 11.617187l44.945313 14.488281.378906 1.171875-45.390625 169.390625c-1.0625 3.96875.410156 8.1875 3.71875 10.628906 3.304687 2.441407 7.769531 2.613282 11.25.433594l50.609375-31.710937 27.976562 52.765625c1.746094 3.296875 5.160156 5.316406 8.832032 5.316406.375 0 .75-.023438 1.128906-.0625 4.082031-.464844 7.46875-3.378906 8.53125-7.351562l35.285156-131.675782 4.976562 4.503906c1.90625 1.722657 4.308594 2.585938 6.710938 2.585938 2.398438 0 4.800781-.863281 6.707031-2.585938l4.976563-4.503906 35.285156 131.675782c1.0625 3.972656 4.449219 6.886718 8.53125 7.347656.378906.042968.757812.066406 1.128906.066406 3.671875 0 7.085938-2.023438 8.832032-5.316406l27.976562-52.769532 50.609375 31.710938c3.484375 2.183594 7.945313 2.011719 11.25-.429688 3.308594-2.441406 4.78125-6.660156 3.71875-10.632812l-12.617187-47.085938c-1.429688-5.335937-6.910157-8.503906-12.25-7.070312-5.332032 1.429688-8.5 6.914062-7.070313 12.246094l6.035156 22.523437-38.167969-23.917969c-2.351562-1.472656-5.214843-1.902343-7.898437-1.183593s-4.945313 2.519531-6.246094 4.976562l-21.097656 39.792969-31.355469-117.011719 13.375-12.101562 46.171875 9.925781c5.019531 1.085938 10.042969-1.820312 11.617188-6.707031l2.804687-8.699219 6.910156 25.789062c1.199219 4.464844 5.238282 7.414063 9.652344 7.414063.859375 0 1.730469-.113281 2.597656-.34375 5.332032-1.429687 8.5-6.914063 7.070313-12.246094l-14.921875-55.691406.375-1.167969 44.949219-14.488281c4.886719-1.578125 7.785156-6.601563 6.707031-11.621094l-9.925781-46.167969 31.679687-35.023437c3.449219-3.804687 3.449219-9.605469.003906-13.414063zm-247.121093 291.554688-21.097657-39.792969c-1.300781-2.453125-3.566406-4.257812-6.25-4.976562-2.683593-.71875-5.542968-.289063-7.894531 1.1875l-38.167969 23.914062 30.792969-114.925781 2.804688 8.699219c1.574219 4.890625 6.601562 7.796875 11.621093 6.710937l46.167969-9.925781 13.375 12.097656zm197.171875-252.730469c-2.15625 2.382813-3.035156 5.664063-2.359375 8.808594l9.101562 42.335937-41.214843 13.285157c-3.0625.988281-5.460938 3.386719-6.449219 6.449219l-13.285157 41.214843-42.335937-9.101562c-3.148437-.679688-6.425781.199219-8.808594 2.359375l-32.113281 29.050781-32.113281-29.050781c-1.859375-1.679688-4.253907-2.585938-6.710938-2.585938-.699219 0-1.402343.074219-2.101562.226563l-42.335938 9.101562-13.285156-41.214843c-.984375-3.0625-3.386719-5.464844-6.449219-6.449219l-41.210937-13.285157 9.101562-42.335937c.675781-3.148437-.203125-6.425781-2.363281-8.8125l-29.046875-32.109375 29.046875-32.113281c2.160156-2.386719 3.039062-5.664063 2.363281-8.8125l-9.101562-42.335938 41.210937-13.285156c3.0625-.984375 5.464844-3.386719 6.449219-6.449219l13.285156-41.210937 42.335938 9.101562c3.144531.679688 6.425781-.203125 8.8125-2.359375l32.113281-29.050781 32.109375 29.046875c2.386719 2.160156 5.664063 3.039062 8.8125 2.359375l42.335937-9.101563 13.285157 41.214844c.988281 3.0625 3.386719 5.464844 6.449219 6.449219l41.214843 13.285156-9.101562 42.335938c-.675781 3.148437.203125 6.425781 2.359375 8.8125l29.050781 32.113281zm0 0"/><path d="m314.402344 381.511719c-5.355469 1.339843-8.613282 6.777343-7.273438 12.136719 1.136719 4.542968 5.214844 7.574218 9.695313 7.574218.800781 0 1.617187-.097656 2.433593-.300781 5.355469-1.339844 8.613282-6.769531 7.273438-12.125l-.003906-.019531c-1.339844-5.359375-6.765625-8.609375-12.125-7.265625zm0 0"/><path d="m142.292969 211.378906-2.710938 31.660156c-.457031 5.492188 1.945313 10.710938 6.425781 13.960938 2.730469 1.980469 5.925782 3 9.160157 3 2.054687 0 4.128906-.414062 6.105469-1.246094l29.21875-12.355468 28.625 12.105468c5.207031 2.371094 11.023437 1.902344 15.601562-1.269531 4.601562-3.195313 7.171875-8.636719 6.703125-14.226563l-2.726563-31.628906 20.546876-23.699218c3.75-4.210938 5-9.878907 3.332031-15.1875-1.65625-5.285157-6.042969-9.34375-11.425781-10.585938l-30.859376-7.167969-16.296874-27.039062c-2.816407-4.777344-7.808594-7.65625-13.378907-7.699219-.042969 0-.089843 0-.132812 0-5.539063 0-10.542969 2.824219-13.410157 7.574219l-16.371093 27.164062-30.824219 7.164063c-5.398438 1.230468-9.65625 5.125-11.390625 10.417968-1.722656 5.265626-.589844 10.910157 3.042969 15.105469zm27.050781-38.117187c2.632812-.609375 4.90625-2.261719 6.300781-4.578125l14.847657-24.632813 14.851562 24.632813c1.394531 2.316406 3.667969 3.96875 6.300781 4.578125l27.988281 6.503906-18.816406 21.707031c-1.769531 2.042969-2.640625 4.714844-2.40625 7.40625l2.464844 28.652344-26.484375-11.199219c-1.246094-.527343-2.570313-.792969-3.898437-.792969-1.324219 0-2.648438.265626-3.894532.792969l-26.46875 11.191407 2.453125-28.648438c.226563-2.691406-.640625-5.363281-2.410156-7.402344l-18.8125-21.703125zm0 0"/><path d="m104.542969 116.261719c2.589843 0 5.179687-1 7.140625-2.996094l.121094-.125c3.867187-3.945313 3.804687-10.277344-.140626-14.144531-3.941406-3.863282-10.273437-3.804688-14.140624.140625l-.125.125c-3.863282 3.945312-3.800782 10.277343.140624 14.140625 1.949219 1.910156 4.476563 2.859375 7.003907 2.859375zm0 0"/></svg>