<?xml version="1.0" encoding="iso-8859-1"?>
<!-- Generator: Adobe Illustrator 19.0.0, SVG Export Plug-In . SVG Version: 6.00 Build 0)  -->
<svg version="1.1" id="Capa_1" xmlns="http://www.w3.org/2000/svg" xmlns:xlink="http://www.w3.org/1999/xlink" x="0px" y="0px"
	 viewBox="0 0 480.006 480.006" style="enable-background:new 0 0 480.006 480.006;" xml:space="preserve">
<path style="fill:#C9AC68;" d="M408.085,245.763l20,51.28l-20.48,6.4l-32.8,10.16l-4.64,54.72l-55.36-7.6l-9.92,16.56l-18.48,30.72
	l-46.4-30.56l-46.48,30.56l-19.12-32l-9.2-15.28l-55.36,7.6l-4.64-54.72l-32.48-10.08l-20.8-6.48l20-51.28l-40.64-37.76l40.64-37.76
	l-20-51.28l53.28-16.56l4.64-54.72l55.36,7.6l28.4-47.28l46.4,30.56l46.48-30.56l28.32,47.28l55.36-7.6l4.64,54.72l53.28,16.56
	l-20,51.28l40.64,37.76L408.085,245.763z"/>
<g>
	<path style="fill:#B25538;" d="M109.869,368.347l-4.672-54.72l-32.496-10.136L8.005,408.003l88-16l16,80l62.384-95.976l-9.2-15.328
		L109.869,368.347z"/>
	<path style="fill:#B25538;" d="M407.605,303.411l-32.8,10.232l-4.672,54.72l-55.32-7.664l-9.952,16.592l63.144,94.712l16-80l88,8
		L407.605,303.411z"/>
</g>
<path style="fill:#507282;" d="M128.005,168.003h56v120h-56V168.003z"/>
<path style="fill:#F0D0B4;" d="M184.005,184.003l40-32l16-32v-40c17.651-0.022,31.978,14.269,32,31.92c0,0.027,0,0.053,0,0.08v40h64
	c8.826,0.026,15.974,7.174,16,16c-0.065,8.809-7.191,15.935-16,16h-8c8.826,0.026,15.974,7.174,16,16
	c-0.065,8.809-7.191,15.935-16,16h-8c8.826,0.026,15.974,7.174,16,16c-0.065,8.809-7.191,15.935-16,16h-8
	c8.826,0.026,15.974,7.174,16,16c-0.065,8.809-7.191,15.935-16,16h-128"/>
<path d="M9.437,415.875l80.264-14.592l14.464,72.32c0.634,3.172,3.115,5.65,6.288,6.28c0.512,0.091,1.032,0.131,1.552,0.12
	c2.674,0,5.172-1.335,6.656-3.56l56.128-84.192l11.912,19.864c1.122,1.872,2.96,3.204,5.088,3.688
	c0.595,0.137,1.205,0.204,1.816,0.2c1.564,0,3.094-0.459,4.4-1.32l42-27.672l42.032,27.672c3.689,2.431,8.651,1.411,11.082-2.278
	c0.063-0.095,0.123-0.192,0.182-0.29l11.92-19.872l56.128,84.2c1.484,2.225,3.982,3.56,6.656,3.56
	c0.521,0.001,1.041-0.05,1.552-0.152c3.173-0.63,5.654-3.108,6.288-6.28l14.56-72.952l80.88,7.384c4.4,0.399,8.29-2.846,8.689-7.246
	c0.165-1.82-0.298-3.642-1.313-5.162l-58.464-87.728l10.248-3.2c4.218-1.317,6.569-5.803,5.252-10.021
	c-0.054-0.174-0.114-0.346-0.18-0.515l-17.976-46.232l36.608-34.04c3.234-3.01,3.416-8.072,0.406-11.306
	c-0.13-0.14-0.266-0.275-0.406-0.406l-36.608-34.032l17.984-46.232c1.601-4.118-0.439-8.754-4.557-10.356
	c-0.17-0.066-0.342-0.126-0.515-0.18l-48.128-15.008l-4.208-49.36c-0.186-2.197-1.264-4.221-2.984-5.6
	c-1.711-1.375-3.915-1.981-6.088-1.672l-50.088,6.936L293.309,3.891c-2.271-3.79-7.184-5.021-10.974-2.75
	c-0.098,0.059-0.194,0.119-0.29,0.182l-42.04,27.672L197.973,1.323c-3.689-2.431-8.651-1.411-11.082,2.278
	c-0.063,0.095-0.123,0.192-0.182,0.29l-25.648,42.768l-50.08-6.936c-4.376-0.608-8.417,2.447-9.025,6.823
	c-0.02,0.141-0.035,0.283-0.047,0.425l-4.216,49.36l-48.088,15.008c-4.218,1.317-6.569,5.803-5.252,10.021
	c0.054,0.174,0.114,0.346,0.18,0.515l17.976,46.232l-36.648,34.04c-3.234,3.01-3.416,8.072-0.406,11.306
	c0.13,0.14,0.266,0.275,0.406,0.406l36.608,34.032l-17.984,46.232c-1.601,4.118,0.439,8.754,4.557,10.356
	c0.17,0.066,0.342,0.126,0.515,0.18l10.616,3.304L1.188,403.811c-2.316,3.763-1.144,8.69,2.619,11.006
	C5.489,415.852,7.494,416.229,9.437,415.875L9.437,415.875z M456.069,390.523l-71.344-6.52c-4.054-0.314-7.714,2.423-8.56,6.4
	l-12.216,61.064l-49.6-74.4l4.624-7.712l50.08,6.936c4.376,0.608,8.417-2.447,9.025-6.823c0.02-0.141,0.035-0.283,0.047-0.425
	l4.216-49.36l21.96-6.848L456.069,390.523z M43.061,208.003l34.28-31.872c2.401-2.233,3.197-5.704,2.008-8.76l-16.8-43.312
	l45.08-14.056c3.109-0.965,5.323-3.717,5.6-6.96l3.952-46.312l46.968,6.504c3.192,0.456,6.346-1.048,8-3.816l24.08-40.144
	l39.376,25.984c2.67,1.758,6.13,1.758,8.8,0l39.472-25.984l24.08,40.152c1.66,2.739,4.786,4.234,7.96,3.808l46.968-6.496
	l3.952,46.312c0.277,3.243,2.491,5.995,5.6,6.96l45.08,14.064l-16.848,43.296c-1.189,3.056-0.393,6.527,2.008,8.76l34.272,31.872
	l-34.28,31.872c-2.401,2.233-3.197,5.704-2.008,8.76l16.8,43.312l-45.04,14.056c-3.109,0.965-5.323,3.717-5.6,6.96l-3.952,46.312
	l-46.96-6.472c-3.176-0.424-6.302,1.074-7.96,3.816l-24.08,40.144l-39.464-26.016c-2.67-1.758-6.13-1.758-8.8,0l-39.472,25.984
	l-24.08-40.152c-1.444-2.41-4.047-3.886-6.856-3.888c-0.369-0.001-0.739,0.026-1.104,0.08l-46.968,6.496l-3.952-46.312
	c-0.277-3.243-2.491-5.995-5.6-6.96l-45.064-14.064l16.8-43.296c1.189-3.056,0.393-6.527-2.008-8.76L43.061,208.003z
	 M75.933,312.883l21.752,6.784l4.208,49.36c0.186,2.197,1.264,4.221,2.984,5.6c1.714,1.368,3.915,1.973,6.088,1.672l50.088-6.936
	l4.632,7.728l-49.6,74.4l-12.24-61.088c-0.855-4.278-4.979-7.082-9.272-6.304l-70.36,12.8L75.933,312.883z"/>
<path d="M128.005,296.003h56c4.418,0,8-3.582,8-8h120c13.228-0.066,23.934-10.772,24-24c-0.027-4.126-1.13-8.174-3.2-11.744
	c1.476-0.921,2.84-2.011,4.064-3.248c7.757-7.544,9.38-19.401,3.936-28.752c1.476-0.921,2.84-2.011,4.064-3.248
	c7.757-7.544,9.38-19.401,3.936-28.752c1.476-0.921,2.84-2.011,4.064-3.248c4.592-4.463,7.168-10.604,7.136-17.008
	c0-13.255-10.745-24-24-24h-56v-32c0.022-22.069-17.851-39.978-39.92-40c-0.027,0-0.053,0-0.08,0c-4.418,0-8,3.582-8,8v38.112
	l-14.4,28.736l-25.744,20.6c-0.26-4.159-3.689-7.41-7.856-7.448h-56c-4.418,0-8,3.582-8,8v120
	C120.005,292.421,123.586,296.003,128.005,296.003L128.005,296.003z M229.005,158.251c0.904-0.725,1.641-1.636,2.16-2.672l16-32
	c0.554-1.111,0.841-2.335,0.84-3.576V89.371c9.606,3.371,16.026,12.452,16,22.632v40c0,4.418,3.582,8,8,8h64c4.418,0,8,3.582,8,8
	c0.007,2.156-0.879,4.218-2.448,5.696c-1.459,1.493-3.465,2.325-5.552,2.304h-32v16h24c4.418,0,8,3.582,8,8
	c0.007,2.156-0.879,4.218-2.448,5.696c-1.459,1.493-3.465,2.325-5.552,2.304h-32v16h24c4.418,0,8,3.582,8,8
	c0.007,2.156-0.879,4.218-2.448,5.696c-1.459,1.493-3.465,2.325-5.552,2.304h-32v16h24c4.418,0,8,3.582,8,8
	c0.007,2.156-0.879,4.218-2.448,5.696c-1.459,1.493-3.465,2.325-5.552,2.304h-120v-84.16L229.005,158.251z M136.005,176.003h40v104
	h-40V176.003z"/>
<g>
</g>
<g>
</g>
<g>
</g>
<g>
</g>
<g>
</g>
<g>
</g>
<g>
</g>
<g>
</g>
<g>
</g>
<g>
</g>
<g>
</g>
<g>
</g>
<g>
</g>
<g>
</g>
<g>
</g>
</svg>
